<?xml version="1.0" encoding="utf-8"?>
<!-- Uploaded to: SVG Repo, www.svgrepo.com, Generator: SVG Repo Mixer Tools -->
<!DOCTYPE svg PUBLIC "-//W3C//DTD SVG 1.1//EN" "http://www.w3.org/Graphics/SVG/1.1/DTD/svg11.dtd">
<svg fill="#000000" width="800px" height="800px" viewBox="0 0 1000 1000" version="1.1" xmlns="http://www.w3.org/2000/svg" xmlns:xlink="http://www.w3.org/1999/xlink"  enable-background="new 0 0 1000 1000" xml:space="preserve">

<g>
<g transform="translate(0.000000,511.000000) scale(0.100000,-0.100000)">
<path d="M5542,4989.6c-595.4-61.3-1267.8-304.6-1764.3-640.8c-1034.4-700.2-1669.3-1776.1-1770.2-3004.4c-67.2-820.8,170.1-1746.5,627-2440.7c59.3-91,108.8-172.1,108.8-178c0-7.9-152.3-164.2-336.2-348.1l-336.2-336.3L1693-1580.9l-377.8,379.8l25.7,100.9c31.7,126.6,4,255.2-79.1,356c-229.4,286.8-526.1,286.8-755.6,0c-158.2-195.8-110.8-447,122.6-632.9c100.9-83.1,229.4-110.8,356-79.1l100.9,25.7l379.8-377.8l377.8-377.8l-830.7-830.7l-830.7-830.7l89-89c85-87,87-93,49.4-112.7c-79.1-43.5-185.9-176-207.7-257.1c-75.2-272.9,197.8-545.9,472.7-470.7c79.1,21.7,211.6,128.6,255.1,207.7c19.8,37.6,25.7,35.6,112.7-49.5l89-89l830.7,830.7l830.7,830.7l377.8-377.8l377.8-379.8l-25.7-100.9c-31.7-126.6-4-255.1,79.1-356c229.4-286.8,526.1-286.8,755.6,0c158.2,195.8,110.8,447-122.6,632.9c-100.9,83.1-229.4,110.8-356,79.1l-100.9-25.7l-379.8,377.8l-377.8,377.8l336.2,336.2c183.9,183.9,342.2,336.2,350.1,336.2c7.9,0,87-49.4,178-108.8c91-61.3,271-164.2,403.5-227.5c1501.2-737.7,3259.6-464.8,4464.1,690.3c363.9,350.1,621.1,700.2,836.7,1139.3c534,1093.8,534,2326-2,3423.7C8771.9,4263.8,7179.7,5157.8,5542,4989.6z M6619.9,4637.6c267-49.4,680.4-182,913.8-294.7c880.2-423.3,1548.7-1178.8,1857.2-2100.5c583.5-1744.5-176-3625.5-1792-4434.4c-1113.6-555.8-2436.8-516.3-3491,108.8c-308.6,182-310.5,128.6,15.8,456.9l284.8,284.8l219.5-114.7c646.8-332.3,1313.3-415.4,1993.7-245.2c1012.7,253.2,1831.5,1072,2084.7,2084.7c193.8,777.3,51.4,1568.5-409.4,2258.8c-162.2,245.3-520.2,603.3-765.4,765.4c-504.4,336.2-990.9,486.6-1584.3,486.6c-454.9,0-799.1-77.1-1202.6-265c-565.7-265-1103.7-803-1368.7-1368.7c-187.9-403.5-265-747.6-265-1202.6c0-494.5,93-876.2,322.4-1317.3l114.7-221.5L3263.4-766c-328.3-326.3-274.9-324.4-456.9-15.8C2450.5-180.6,2288.3,474.1,2314,1196c35.6,941.5,401.5,1788,1054.2,2440.7c575.6,575.6,1317.3,935.5,2150,1040.4C5759.5,4706.8,6362.8,4687,6619.9,4637.6z M6471.6,3539.8c484.6-108.8,884.1-318.4,1224.3-642.8c381.7-365.9,621-795.1,737.8-1329.1c49.4-233.4,49.4-789.2-2-1024.5c-104.8-486.6-318.4-894-644.8-1234.2c-362-379.8-799.1-623-1325.2-735.8c-211.6-45.5-769.4-51.4-979.1-9.9C5271-1395,5021.8-1308,4820-1207.1l-183.9,93l294.7,294.7l294.7,294.7l134.5-49.4c955.3-348.1,2001.6,215.6,2274.6,1226.3c31.7,122.6,41.6,213.6,41.6,405.5c0,269-37.6,454.9-136.5,680.4c-172.1,389.6-522.2,739.7-911.8,911.8c-225.5,98.9-411.4,136.5-680.4,136.5c-362,0-629-79.1-937.5-278.9c-674.5-437.1-967.2-1291.6-694.2-2037.2l49.4-134.5L4068.4,39l-294.7-294.7L3663-26.3c-69.2,142.4-134.5,320.4-172.1,464.8c-57.4,219.5-61.3,255.1-63.3,599.3c-2,399.5,19.8,541.9,126.6,858.4c207.7,615.1,664.6,1135.3,1256,1432c191.9,94.9,480.6,187.9,682.4,221.5c81.1,11.9,162.2,25.7,178,29.7C5745.7,3599.2,6345,3567.5,6471.6,3539.8z M6372.7,2422.3c245.3-77.1,399.5-172.1,583.5-356c185.9-185.9,280.9-340.2,360-593.4c37.6-124.6,45.5-189.9,45.5-415.4c0-302.6-35.6-452.9-164.2-702.1c-98.9-187.9-360-449-547.9-547.9C6400.4-321,6250-356.6,5947.4-356.6c-168.1,0-296.7,9.9-346.1,25.7c-43.5,15.8-91,31.6-106.8,35.6c-17.8,5.9,25.7,63.3,130.5,172.1L5781.3,39l35.6,189.9l35.6,189.9l126.6,11.9c152.3,13.8,334.3,102.9,423.3,205.7c114.7,130.5,166.2,257.1,166.2,421.3c2,132.5-5.9,162.2-65.3,272.9c-77.1,140.4-156.2,217.6-304.6,294.7c-85,45.5-128.6,55.4-251.2,55.4c-132.5,0-162.2-7.9-272.9-67.2c-207.7-112.7-338.2-304.6-356-528.1l-9.9-122.6L5118.7,927l-189.9-35.6l-162.2-156.3c-108.8-104.8-166.1-148.3-172.1-130.5c-4,15.8-19.8,63.3-35.6,106.8c-15.8,49.4-25.7,178-25.7,346.1c0,225.5,7.9,290.8,45.5,415.4c79.1,253.2,174.1,407.4,360,593.4c213.6,215.6,429.2,330.3,733.8,395.6C5824.8,2493.5,6216.4,2471.8,6372.7,2422.3z M6141.3,1322.6c160.2-118.7,162.2-409.4,2-528.1c-27.7-19.8-87-41.5-132.5-47.5c-96.9-13.8-96.9-15.8-53.4,193.8c17.8,79.1,27.7,146.4,23.7,150.3c-4,3.9-71.2-5.9-150.3-23.7c-209.6-43.5-207.7-43.5-193.8,53.4c21.7,168.1,148.3,261.1,336.2,247.2C6046.3,1364.2,6105.7,1348.3,6141.3,1322.6z M5583.5,667.9c-5.9-19.8-29.7-134.5-53.4-255.1l-41.5-219.6L4096.1-1199.2L2703.7-2591.6l-201.7,203.7l-203.7,201.7L3690.6-793.7L5083.1,598.7l239.3,49.4c132.5,27.7,247.2,49.4,255.1,51.4C5587.5,701.6,5589.4,685.8,5583.5,667.9z M1002.7-880.7c25.7-25.7,39.6-65.3,39.6-118.7c0-104.8-53.4-158.2-158.2-158.2s-158.2,53.4-158.2,158.2c0,104.8,53.4,158.2,158.2,158.2C937.4-841.2,977-855,1002.7-880.7z M2278.4-2621.3l197.8-197.8l-85-83.1l-83.1-85l-201.7,201.7l-201.7,203.7l77.1,79.1c41.5,43.5,83.1,79.1,89,79.1C2076.7-2423.5,2169.7-2512.5,2278.4-2621.3z M1882.9-3016.9l197.8-197.8l-520.2-520.2L1042.3-4253l-201.7,203.7l-203.7,201.7l514.3,514.3c282.8,282.8,518.2,514.2,524.1,514.2C1681.1-2819.1,1774.1-2908.1,1882.9-3016.9z M4009.1-3887.1c25.7-25.7,39.6-65.3,39.6-118.7c0-104.8-53.4-158.2-158.2-158.2c-104.8,0-158.2,53.4-158.2,158.2s53.4,158.2,158.2,158.2C3943.8-3847.6,3983.4-3861.4,4009.1-3887.1z M557.7-4401.4c0-65.3-4-69.2-69.2-69.2c-57.4,0-71.2,7.9-75.2,45.5c-11.9,79.1,9.9,106.8,79.1,98.9C551.7-4332.1,557.7-4338.1,557.7-4401.4z"/>
</g>
</g>
</svg>